<svg xmlns="http://www.w3.org/2000/svg" width="30.09" height="30.094" viewBox="0 0 30.09 30.094">
  <g id="ic_healing_48px" transform="translate(-3.915 -3.995)">
    <path id="Tracé_8" data-name="Tracé 8" d="M27.591,19.04l5.974-5.974a1.5,1.5,0,0,0,0-2.124L27.058,4.434a1.5,1.5,0,0,0-2.124,0L18.96,10.409,12.986,4.442a1.486,1.486,0,0,0-2.117,0L4.354,10.949a1.5,1.5,0,0,0,0,2.124l5.974,5.974L4.354,25.014a1.5,1.5,0,0,0,0,2.124l6.507,6.507a1.5,1.5,0,0,0,2.124,0l5.974-5.974,5.974,5.974a1.486,1.486,0,0,0,2.117,0l6.507-6.507a1.5,1.5,0,0,0,0-2.124L27.591,19.04Zm-8.6-4.533a1.5,1.5,0,1,1-1.5,1.5A1.506,1.506,0,0,1,18.99,14.507Zm-7.07,2.942L6.478,12.007l5.449-5.449L17.369,12Zm4.068,3.062a1.5,1.5,0,1,1,1.5-1.5A1.506,1.506,0,0,1,15.988,20.511Zm3,3a1.5,1.5,0,1,1,1.5-1.5A1.506,1.506,0,0,1,18.99,23.513Zm3-6a1.5,1.5,0,1,1-1.5,1.5A1.506,1.506,0,0,1,21.992,17.509Zm4,14.013L20.551,26.08,26,20.631l5.442,5.442Z" fill="#fff"/>
  </g>
</svg>
