<svg xmlns="http://www.w3.org/2000/svg" width="45" height="45" viewBox="0 0 45 45">
  <g id="Groupe_11" data-name="Groupe 11" transform="translate(-37 -1383)">
    <circle id="Ellipse_32" data-name="Ellipse 32" cx="22.5" cy="22.5" r="22.5" transform="translate(37 1383)" fill="#000c4e"/>
    <path id="linkedin" d="M20.835,20.84H17.213V15.165c0-1.353-.028-3.095-1.887-3.095-1.888,0-2.177,1.472-2.177,2.995V20.84H9.528V9.171h3.479v1.591h.047a3.816,3.816,0,0,1,3.434-1.885c3.669,0,4.348,2.415,4.348,5.558V20.84ZM5.438,7.574a2.1,2.1,0,1,1,2.1-2.1A2.1,2.1,0,0,1,5.438,7.574ZM7.254,20.84H3.622V9.171H7.254ZM22.646,0H1.8A1.783,1.783,0,0,0,0,1.762V22.693a1.782,1.782,0,0,0,1.8,1.762H22.643a1.789,1.789,0,0,0,1.812-1.762V1.762A1.79,1.79,0,0,0,22.643,0Z" transform="translate(46.782 1393.511)" fill="#fff"/>
  </g>
</svg>
